<svg id="Calque_1" data-name="Calque 1" xmlns="http://www.w3.org/2000/svg" viewBox="0 0 301 252"><defs><style>.cls-1{fill:#3f86ae;}.cls-2{fill:#15243a;}.cls-3{fill:#eba4a4;}.cls-4{fill:#fefefe;}</style></defs><path class="cls-1" d="M146.22,123.85a45.74,45.74,0,0,0-1.15-4.79,19.34,19.34,0,0,0-1.75-3.17l-.15-.26-.37.25a7.05,7.05,0,0,0-1.15,1.56c-.69,1.83-1.26,3.7-1.87,5.55-.11.14-.21.28-.32.41l-1.14,3c0,.2-.07.4-.11.6l-.63,1c-.08.49-.15,1-.22,1.45-.19.23-.38.47-.58.69l-.27.88-.69,2.15h0l-6,.05c-.13-.48-.12-1.07-.41-1.4a20.69,20.69,0,0,1-3.91-7.38,11.76,11.76,0,0,1,.53-9.36c1.15-2.78,2.7-5.3,5.66-6.56a11.87,11.87,0,0,1,11.29.86c2.41,1.42,3.85,3.63,5.11,6,.91,1.73,2.32,1.75,3.34.12.16-.26.36-.5.5-.77a12.4,12.4,0,0,1,12.36-7.22c2.58.11,5.13.88,6.21,3.76-1,.84-.92,2-.91,3.11s0,2.35,0,3.52l-.64,1.23c-.1,1.34-.19,2.69-.28,4l-.18,0,.06.2L168,126.4l-.3.67a.53.53,0,0,0-.16.2l-.34,0,.15.26c-.32,1.5-.6,3-1,4.5-.1.38-.48.68-.73,1l-.65.28c-1.45,0-2.89,0-4.33-.07a1.3,1.3,0,0,1-1-.6c-.46-1-.79-2.14-1.17-3.22l-.45-.9c-.63-1.15-1.22-2.33-1.93-3.43-.08-.11-.88.24-1.34.37h0c-.2.64-.39,1.29-.58,1.93-.2.31-.41.61-.62.92-.07.73-.14,1.45-.22,2.17a2.71,2.71,0,0,0-.39.17s.07.18.1.27l-.45,1.81-.5.64-.84,2.57-.09,1.32c-.27.87-.82.7-1.41.38l-.15-.41c-.26-1-.51-2.08-.77-3.12,0-.21,0-.42,0-.63l-.66-1.12-.12-1.45c0-.26,0-.52,0-.78.06-.11.11-.22.16-.33l-.27-.05a3.77,3.77,0,0,1-.55-1c-.34-1.46-.6-2.93-.92-4.4a2.12,2.12,0,0,0-.32-.56Z"/><path class="cls-2" d="M117.48,134.92c-1.63,0-3.25,0-4.88,0a1.6,1.6,0,0,0-1.84,1.72c-.16,2.19-.07,4.48-.74,6.51-1,3-1.69,6.25-4,8.68a4,4,0,0,1-4.21.38,6.22,6.22,0,0,1-3.33-4.26c-.51-2.42-1.28-4.79-1.93-7.18a1.83,1.83,0,0,1-.09-.39c-.18-5.26-1.57-10.46-.42-15.79.59-2.73.69-5.55,1.08-8.33a13.5,13.5,0,0,1,.73-2.23c.47-1.39.89-2.81,1.42-4.19a4.7,4.7,0,0,1,3.42-2.84,4.81,4.81,0,0,1,3,.8,7.14,7.14,0,0,1,3.54,4.86c.63,3.26,1.08,6.56,1.57,9.85.16,1.07.64,1.68,1.78,1.69a34.62,34.62,0,0,1,4.08.13,2.62,2.62,0,0,1,1.66,1c1.21,1.84,2.24,3.8,3.41,5.66.46.74,1.14,1.34,1.65,2a7.35,7.35,0,0,1,.62,1.33,4.67,4.67,0,0,1-1.39.53c-1.72.06-3.43,0-5.15,0Z"/><path class="cls-2" d="M273.26,136.06c-2.54-.45-6.43-.69-9.39-3.37a15.4,15.4,0,0,1-3.61-4.76,20,20,0,0,1-2-6.74c-.44-5.43,2.17-9.5,6.42-12.74,3.46-2.63,7.49-3.62,11.59-4.54A22.5,22.5,0,0,1,287,104a12.89,12.89,0,0,1,7.79,5.67A17,17,0,0,1,297.25,122a13.85,13.85,0,0,1-2.55,5.62c-1.81,2.46-4.3,3.91-6.74,5.46a12.69,12.69,0,0,1-3.29,1.07C281.33,135.11,278,136.19,273.26,136.06Zm.09-7.24c5.56-.34,10.09-1.29,14.15-3.82,3.34-2.07,4.73-5.18,4-8.72-.66-3.13-3.1-5.11-7-5.65a24,24,0,0,0-9.88,1.14,18.44,18.44,0,0,0-7.89,4.06,7,7,0,0,0,1.83,11.77A24.79,24.79,0,0,0,273.35,128.82Z"/><path class="cls-2" d="M17.73,170c-3.62.39-7-.75-10.14-2.16a13.48,13.48,0,0,1-7.26-7.64c-.93-2.48-.57-5-.69-7.56-.18-3.53,1.57-6.35,3.67-8.83a12.91,12.91,0,0,1,6.4-4,36.7,36.7,0,0,1,11.93-1.37A22.08,22.08,0,0,1,31.45,141c4.8,2.71,7.12,6.95,7.35,12.37s-1.58,9.72-6,12.81a17.77,17.77,0,0,1-9.33,3.42C21.58,169.74,19.66,169.9,17.73,170ZM17.68,163c2.8-.36,5.07-.6,7.32-1a14.16,14.16,0,0,0,2.88-.91,7.5,7.5,0,0,0,5.1-7,7.17,7.17,0,0,0-4.9-6.85,23.64,23.64,0,0,0-17.86.17,7.14,7.14,0,0,0-5,7.21,6.87,6.87,0,0,0,5.19,6.84A65.8,65.8,0,0,0,17.68,163Z"/><path class="cls-2" d="M105.06,24.22c1.64,5.32,3.2,10.47,4.8,15.6.41,1.29,1,2.54,1.37,3.84.27.86.34,1.62-.93,1.92-1.65.38-3.24,1-4.88,1.51-.18.06-.61-.21-.68-.42-.26-.7-.38-1.45-.59-2.17-.66-2.33-1.33-4.66-2-7C100.59,32.44,99,27.37,97.49,22.3c-1-3.48-2.07-7-3.12-10.44a15.18,15.18,0,0,0-.66-1.56L94,10a8.57,8.57,0,0,1,1.32.56c1.8,1.15,3.57,2.34,5.37,3.48,2.08,1.34,4.19,2.63,6.28,4,2.86,1.82,5.7,3.66,8.55,5.5.82.53,1.61,1.11,2.46,1.58a1.32,1.32,0,0,0,1,0,.88.88,0,0,0,.24-.79c-1.63-5.2-3.29-10.39-4.92-15.59-.37-1.16-.62-2.35-1-3.72l6.41-2,11.17,37-.27.32a13.62,13.62,0,0,1-2-.87c-2.77-1.73-5.51-3.52-8.27-5.27-1-.65-2.06-1.25-3.08-1.89-3-1.84-5.9-3.67-8.82-5.55C107.34,26,106.26,25.09,105.06,24.22Z"/><path class="cls-2" d="M37.94,49.88c.85-.75,1.92-1.66,3-2.61.38-.36.57-.92,1-1.25,1.25-1,1.85.08,2.56.84L53.87,57c1.49-1.38,2.94-2.71,4.36-4.07s2.53-2.43,3.73-3.71a1.07,1.07,0,0,0,0-1.68c-2.44-2.58-4.79-5.23-7.19-7.85-.84-.92-1.71-1.81-2.62-2.78l5-4.8a8.66,8.66,0,0,1,.73.61c3.4,3.62,6.78,7.27,10.2,10.88,2.93,3.1,5.92,6.15,8.84,9.26,2.14,2.27,4.21,4.58,6.36,6.93l-5.26,4.84L67.09,53,58,61.32c3.74,4,7.42,7.92,11.08,11.82-1.57,1.43-3.08,2.64-4.39,4-.7.76-1,.48-1.51-.07q-2.94-3.16-5.91-6.3c-3.65-3.85-7.33-7.66-11-11.52C44,56.91,41.84,54.47,39.65,52,39.1,51.41,38.61,50.73,37.94,49.88Z"/><path class="cls-2" d="M137.93,22.27c0-2.41-.3-4.89.13-7.23a31.41,31.41,0,0,1,2.53-7.13c1.44-3.18,4.3-5.05,7.22-6.62A15.81,15.81,0,0,1,153,.05a19.25,19.25,0,0,1,4.42-.2c1.35.12,2.66.69,4,.93a9.18,9.18,0,0,1,4,2.07c.6.47.4,1,.2,1.5-.54,1.25-1.19,2.46-1.8,3.69-.68,1.4-1.35,1.65-2.32.48-1.55-1.88-3.68-2-5.71-2.1-4.71-.34-8.29,2.13-9.78,7.16-1.68,5.67-1.48,11.38,1.77,16.55,2.54,4.05,9.46,4.44,12.14.83,1.44-1.94,1.58-4.21,1.44-6.76H153.7V18.34h14.18c.32,4.13.44,8.07-.71,12a13.21,13.21,0,0,1-5.3,7.57A9.58,9.58,0,0,1,158.24,39c-3.18.59-6.39.88-9.52-.15-4.26-1.4-7-4.53-8.8-8.47A38.43,38.43,0,0,1,138,24.76a9.64,9.64,0,0,1-.1-2.35l0-.07Z"/><path class="cls-2" d="M276.17,154.1l-9.88-.58a16.73,16.73,0,0,1-2.75-.22c-.41-.1-1-.69-1-1,.13-1.94.43-3.86.69-5.9l37.8,2.31c-.11,1.93-.15,3.76-.32,5.58-.31,3.17-.58,6.35-1.08,9.49a9.4,9.4,0,0,1-6.35,7.55,14.25,14.25,0,0,1-7.94.36c-5.11-1.06-8.7-3.8-10-9.21l-13.64,8.94c.07-1.51.15-2.77.18-4,0-1.09.05-2.19,0-3.28a1.69,1.69,0,0,1,1-1.71c4.38-2.64,8.72-5.32,13.08-8C276.05,154.36,276.07,154.26,276.17,154.1Zm19.14,1.13-15.57-.86v3.46a6.31,6.31,0,0,0,3.15,5.72,10.46,10.46,0,0,0,6.59,1.37,5.28,5.28,0,0,0,5.12-4.33C295,158.92,295.06,157.2,295.31,155.23Z"/><path class="cls-2" d="M254.06,85.41l-8.85,5.3-3.73-6.13c1.53-.87,3-1.7,4.51-2.57,4.47-2.62,8.95-5.23,13.4-7.9,1.24-.74,2.32-1.77,3.56-2.52,1.68-1,3.47-1.82,5.17-2.79s3.5-2,5.16-3.15c.68-.46,1-.46,1.43.22,1.37,2.35,2.73,4.71,4.16,7s2.88,4.79,3.12,7.59a21.13,21.13,0,0,1-.4,6.09,6.75,6.75,0,0,1-2,2.78,17.75,17.75,0,0,1-8.83,5.24,10.13,10.13,0,0,1-2.2.5c-2.07,0-4.23.49-6.18-.58-2.52-1.39-4.92-2.94-6.29-5.66C255.51,87.69,254.76,86.59,254.06,85.41ZM259,82.49c.65,1.09,1.22,2.13,1.87,3.11a5.81,5.81,0,0,0,5.27,3c3.9-.21,6.86-2.2,9.19-5.21a3.53,3.53,0,0,0,.55-1.47c.61-3.09-1.27-5.29-2.66-7.77Z"/><path class="cls-2" d="M46.49,105c-.69,2.52-1.25,4.63-1.88,6.72a1.21,1.21,0,0,1-.84.62,19.67,19.67,0,0,1-2.76.26,3.12,3.12,0,0,0-3.11,2.63c-.92,3.24-1.68,6.53-2.59,9.78a1.2,1.2,0,0,0,.62,1.6c1.11.68,2.23,1.35,3.27,2.12a1.48,1.48,0,0,1,.42,1.23c-.55,2.22-1.2,4.41-1.85,6.74L4.38,110.89a7.07,7.07,0,0,1,1.23-.43q10.38-1.33,20.76-2.64c4.16-.53,8.32-1,12.48-1.59C41.27,105.9,43.69,105.48,46.49,105Zm-16,17.62c.84-3.1,1.65-6.06,2.5-9.19l-13.71,1.31Z"/><path class="cls-2" d="M255.78,55.19c-.3-1.52-.56-2.88-.86-4.24a4.23,4.23,0,0,0-.39-.84c-1.26-2.37-3.43-3.56-5.45-3a4.8,4.8,0,0,0-3.21,5.66c.5,2.94,1.27,5.84,1.89,8.76a11.41,11.41,0,0,1-3.45,11.15c-3.63,3.62-10.79,3.6-14.19-.32-1.51-1.74-3.17-3.37-4.56-5.2a10.1,10.1,0,0,1-1.15-3.06c-.34-1-.61-2.12-1-3.53l6.45-2.31a11.76,11.76,0,0,0,2.3,7.71,6.53,6.53,0,0,0,2.44,2.1,5.14,5.14,0,0,0,4.87-.77c1.59-1.09,1.74-2.91,1.4-4.67-.56-2.87-1.26-5.72-1.87-8.59-.88-4.09-.24-7.82,3-10.72,3.89-3.52,8.16-4.06,12.5-1.43a16.75,16.75,0,0,1,6,6.6c.71,1.31.75,3,1.05,4.5a.72.72,0,0,1-.38.58C259.32,54.17,257.49,54.69,255.78,55.19Z"/><path class="cls-3" d="M153.51,175.43c-1.76.17-3.56.66-5.27.44-2.8-.35-5.54-1.18-8.32-1.78-.55-.12-1.13-.11-1.68-.24a9.43,9.43,0,0,1-2.18-.63c-1.1-.54-1.54-.28-1.81.92a3.05,3.05,0,0,1-1.13,1.7c-.8.57-1.5.09-1.54-.9,0-.27,0-.53,0-.8,0-2.27,0-2.31-1.85-3.26s-3.68-1.66-5.47-2.58a13.34,13.34,0,0,1-2.41-1.68c-1.39-1.19-3.1-1.89-4.32-3.4-1.71-2.1-3.84-3.84-5.7-5.82a30,30,0,0,1-2.74-3.58,1.41,1.41,0,0,1,0-1.31c1.72-1.94,2.36-4.39,3.28-6.7.12-.3.49-.51.74-.75.2.23.42.45.61.7.85,1.11,1.71,2.22,2.54,3.35.52.72,1,1.52,1.52,2.21.77.94,1.63,1.81,2.47,2.69s1.9,2,2.85,2.91a7.31,7.31,0,0,0,.89.78c.62.43,1.25.85,1.89,1.24,1.09.67,2.2,1.31,3.29,2a3.72,3.72,0,0,1,.74.47,5,5,0,0,0,3.81,1.79c.47,0,.93.62,1.45.79,1.74.57,3.5,1.12,5.24,1.64a31.2,31.2,0,0,0,5.36.64c.56.07,1.1.72,1.62.69,1.69-.09,3.38-.35,5.06-.58.42-.06.83-.35,1.25-.37a38.6,38.6,0,0,0,18.14-6.19,36.12,36.12,0,0,0,10.11-8.87c1.24-1.66,2.4-3.38,3.61-5.07a5.8,5.8,0,0,1,1-1.08c.93-.76,1.82-.42,2.21.7.86,2.5,1.8,5,2.67,7.47.12.33.23.84.07,1.07a31.06,31.06,0,0,1-2.67,3.55,68.14,68.14,0,0,1-6.16,6.32,52.78,52.78,0,0,1-7.82,5.44,47.24,47.24,0,0,1-7.48,3.22,60.16,60.16,0,0,1-6,1.61q-2.84.69-5.7,1.28a7.41,7.41,0,0,1-1.56,0c1.41-.35,2.81-.73,4.24-1s3.08-.49,4.57-.92c1.94-.58,3.81-1.44,5.76-2a35.16,35.16,0,0,0,12-6.46c3.58-2.89,6.4-6.7,9.58-10.07a2.22,2.22,0,0,0,.31-2.66c-.78-1.93-1.51-3.89-2.31-5.81a7.33,7.33,0,0,0-.85-1.26,5.68,5.68,0,0,0-1.2.87c-2,2.52-3.84,5.19-6,7.58a61.18,61.18,0,0,1-5.13,4.46,30.36,30.36,0,0,1-8.49,5.14A42.2,42.2,0,0,1,154,166.49a11.1,11.1,0,0,0-6.84,2.73,29.91,29.91,0,0,1-3.44,2.37c-.44.31-1.18.88-1.11,1.1.23.63.7,1.49,1.25,1.65a27.24,27.24,0,0,0,5,.95C150.37,175.46,151.94,175.39,153.51,175.43Z"/><path class="cls-2" d="M12.07,184.09c-1.73,2.69-1.44,5.38-.16,8.11a8,8,0,0,0,7.77,4c1.26-.2,2.62.11,3.82-.23a30.38,30.38,0,0,0,9.63-4.14,9.89,9.89,0,0,0,3.6-4.66,6.85,6.85,0,0,0-1.28-6.85c-.84-1.08-1.75-2.09-2.6-3.1.83-1.12,1.68-2.26,2.55-3.4s1.52-1.25,2.42-.29c1.51,1.61,3.3,3.17,4.18,5.1,1.88,4.11,2.6,8.58.7,12.87A18.45,18.45,0,0,1,32.48,201a47.62,47.62,0,0,1-7.85,2.63c-1.85.41-3.85.07-5.78.12-3.17.08-5.74-1.38-8.16-3.16a15.64,15.64,0,0,1-6-10.43,11.26,11.26,0,0,1,.57-6.49A1,1,0,0,1,6.5,183c1.37.22,2.78.26,4.16.47A5.6,5.6,0,0,1,12.07,184.09Z"/><path class="cls-2" d="M33.4,70.14c-4.39.6-6.44,3.75-6.77,7.45a6.33,6.33,0,0,0,1.7,5c1.27,1.29,2.25,3,3.77,4A23.23,23.23,0,0,0,43,91.21c5.23.59,7.65-2.31,8.84-6.83a26.85,26.85,0,0,0,.44-3.52h5.81a14.78,14.78,0,0,1-1.65,9.29,14.27,14.27,0,0,1-8.57,7.67c-2,.63-4.09,1.33-6.33.71-1.65-.45-3.47-.4-5-1-5.52-2.22-10.73-5-14-10.26A23.42,23.42,0,0,1,20.19,83a16,16,0,0,1-.26-3.43c-.38-3.35.86-6.17,2.5-9a13.13,13.13,0,0,1,6.63-5.83c.36-.15,1.1-.13,1.23.08C31.36,66.52,32.33,68.28,33.4,70.14Z"/><path class="cls-2" d="M206,43.67c.15,1.25.3,2.45.44,3.64,0,.09,0,.17,0,.26.12,2.34.11,2.26-2.23,2.6-7.24,1-14.58-4.31-16.34-9.89a24.33,24.33,0,0,1-.74-9c.21-3.7,2-6.78,3.5-9.91a19.86,19.86,0,0,1,3.66-5.23,16.67,16.67,0,0,1,9.36-4.65c2.67-.48,5.11.26,7.53,1.12,3.43,1.22,6.28,3.2,7.86,6.79l-4.95,4.33a8.22,8.22,0,0,0-5.33-5.23,6.83,6.83,0,0,0-6,.49c-3.33,1.86-5.19,4.77-6.47,8.12a23.52,23.52,0,0,0-1.93,8.38c0,6.13,4,8.82,9.49,8.48C204.45,44,205.05,43.81,206,43.67Z"/><path class="cls-2" d="M153.51,175.43c-1.57,0-3.14,0-4.69-.14a27.24,27.24,0,0,1-5-.95c-.55-.16-1-1-1.25-1.65-.07-.22.67-.79,1.11-1.1a29.91,29.91,0,0,0,3.44-2.37,11.1,11.1,0,0,1,6.84-2.73,42.2,42.2,0,0,0,12.66-3.27,30.36,30.36,0,0,0,8.49-5.14,61.18,61.18,0,0,0,5.13-4.46c2.15-2.39,4-5.06,6-7.58a5.68,5.68,0,0,1,1.2-.87,7.33,7.33,0,0,1,.85,1.26c.8,1.92,1.53,3.88,2.31,5.81a2.22,2.22,0,0,1-.31,2.66c-3.18,3.37-6,7.18-9.58,10.07a35.16,35.16,0,0,1-12,6.46c-1.95.57-3.82,1.43-5.76,2-1.49.43-3.06.59-4.57.92s-2.83.69-4.24,1Z"/><path class="cls-3" d="M170.51,111.29c-1.08-2.88-3.63-3.65-6.21-3.76a12.4,12.4,0,0,0-12.36,7.22c-.14.27-.34.51-.5.77-1,1.63-2.43,1.61-3.34-.12-1.26-2.4-2.7-4.61-5.11-6a11.87,11.87,0,0,0-11.29-.86c-3,1.26-4.51,3.78-5.66,6.56a11.76,11.76,0,0,0-.53,9.36,20.69,20.69,0,0,0,3.91,7.38c.29.33.28.92.41,1.4a18.53,18.53,0,0,0-2.38-1.49,10.22,10.22,0,0,1-5-5.23,15.13,15.13,0,0,1-1.33-8.75,16.72,16.72,0,0,1,1.64-5.22c1.05-2,2-4.31,4-5.67a18.36,18.36,0,0,1,4.13-2.39c2.5-.93,4.93-.7,7.34-.55,2.67.16,5.42.56,7.62,2.51,1.35,1.19,2.9,2.14,4.55,3.34.46-.45,1.14-1,1.75-1.7,1.71-1.84,3.93-2.65,6.22-3.57,2.87-1.15,5.73-.62,8.55-.54a5.85,5.85,0,0,1,4,1.66c.91,1,2.24,1.51,3.12,2.48,1.65,1.84,3.27,3.73,3.73,6.35.25,1.43,1,2.76,1.4,4.18a4.88,4.88,0,0,1-.06,2.08,13,13,0,0,0-.59,2.43,4.47,4.47,0,0,1-.61,3.11c-1.05,1.34-1.46,3.13-3.28,4A42.65,42.65,0,0,0,170,133a5.7,5.7,0,0,1-1.09.28c1.27-1.88,2.4-3.42,3.39-5.05a14.74,14.74,0,0,0,1.27-2.9c.45-1.32.78-2.68,1.17-4,.06-.2.24-.44.18-.61-.6-1.85-.45-3.91-1.66-5.61-.52-.73-.76-1.67-1.27-2.42A8.76,8.76,0,0,0,170.51,111.29Z"/><path class="cls-2" d="M289.27,209.26c-1.77-.48-3.4-.88-5-1.37-.77-.23-1.21-.58-.76-1.61.85-1.94,1.51-4,2.18-6,.28-.86-.23-1.35-1-1.6q-4.25-1.32-8.47-2.67c-3.57-1.14-7.15-2.26-10.7-3.44-3.13-1-6.23-2.14-9.35-3.23a1.36,1.36,0,0,1-.34-.23l2.47-6.65,30.1,10c.8-2.42,1.58-4.82,2.38-7.21.37-1.13.88-1.32,1.94-.78a5.85,5.85,0,0,0,.82.33l2.62,1c.73.28.91.72.62,1.5-.66,1.79-1.2,3.62-1.81,5.42-.75,2.21-1.53,4.4-2.3,6.59a30.75,30.75,0,0,0-1.81,5.36C290.55,206.34,289.6,207.68,289.27,209.26Z"/><path class="cls-2" d="M215.35,130.51c0,1.54.08,3.09,0,4.62-.09,1.2-.45,2.37-.65,3.56-.12.69-.17,1.39-.26,2.09a24.87,24.87,0,0,1-2.68,9.54,4.29,4.29,0,0,1-3.39,2.19c-.35,0-.7.08-1.05.09-3.46.09-4.47-1.61-2.93-4.85a10.8,10.8,0,0,0,.86-2.61c.37-2,.55-4,1-5.92a52.41,52.41,0,0,0,.65-13.11c-.13-2.84-1-5.64-1.16-8.48s-2.15-5.3-1.77-8.28c.19-1.5.7-2.14,2.25-2.1a13.2,13.2,0,0,1,3.27.31,3.79,3.79,0,0,1,1.94,1.43,15.5,15.5,0,0,1,2.43,6.85c.31,2.45,1,4.86,1.32,7.3a43.86,43.86,0,0,1,.26,4.6c0,.92,0,1.85,0,2.77Z"/><path class="cls-2" d="M93.39,138.4l.06.6a41.22,41.22,0,0,0,.65,4.59c.49,2,1.24,3.89,1.85,5.84.55,1.75-.23,2.82-2.07,2.87-.79,0-1.59-.05-2.38,0-1.77.13-2.63-.93-3.47-2.3-1.2-2-1.54-4.16-2.09-6.3a23.79,23.79,0,0,1-.89-5.41c-.13-5.1-.1-10.21,0-15.32a21.87,21.87,0,0,1,.54-3.75,29,29,0,0,0,.95-4.85,9.79,9.79,0,0,1,1.83-5.24,3.1,3.1,0,0,1,3.19-1.65c.82.08,1.67,0,2.5,0,1.84.05,2.56,1,2.12,2.74a17.27,17.27,0,0,1-.93,2.85c-1.41,3.08-1.67,6.44-1.92,9.69-.37,4.86-.1,9.76-.08,14.65A5.65,5.65,0,0,0,93.39,138.4Z"/><path class="cls-1" d="M132.81,136.61a16.5,16.5,0,0,0,2.73-.25,2.83,2.83,0,0,0,1.75-1,43.84,43.84,0,0,0,3-6.93,16,16,0,0,1,1.6-3.72c.18-.3,0-.81.13-1.15s.48-.79.73-.79a1.16,1.16,0,0,1,.84.72c.57,1.66,1.11,3.34,1.54,5,.37,1.45.54,2.95.86,4.41.24,1.09.57,2.15.87,3.22.17.64.36,1.28.55,1.92.15.47.31,1,.47,1.42a6.39,6.39,0,0,1,.31.83c.3,1.32.52,2.66.89,4a1.13,1.13,0,0,0,1,.47c.67-.36,1.55-.79,1.79-1.41.48-1.27.52-2.7.89-4,.26-.95.8-1.82,1.15-2.76.43-1.1.79-2.24,1.18-3.35.25-.69.52-1.37.77-2l.39.06.45,1.14,0,0a14,14,0,0,1,1.37,2.59,1.85,1.85,0,0,0,1.92,1.43c1.06.06,2.11,0,3.17,0,1.81,0,1.81,0,1.69,1.82l0,0-.38,0a6.83,6.83,0,0,1-2.38,4.17c-3,2.25-6.15,4.41-9.21,6.64a5.32,5.32,0,0,1-5.39.29,38.33,38.33,0,0,1-6.85-4.53,51,51,0,0,1-5.18-4.44C134.43,139.27,133.11,138.29,132.81,136.61Z"/><path class="cls-3" d="M123.53,87.41a7.55,7.55,0,0,0,1,1.52c.8.73.84,1.26,0,2-2,1.88-4,3.75-5.75,5.79a43,43,0,0,0-4.21,5.66c-1.21,1.93-2.1,4.06-3.18,6.07-.35.64-.81.46-1.23-.08-1-1.22-1.94-2.43-3-3.6a1.73,1.73,0,0,0-1-.41c-1.37-.18-1.69-.76-1-2a22.61,22.61,0,0,1,1.38-2.79c2.19-3.17,4.35-6.38,6.75-9.39a31.25,31.25,0,0,1,5.36-5.36,74.56,74.56,0,0,1,8.54-5.58,77.9,77.9,0,0,1,7.54-3.46c.29-.13,1,.06,1.09.27.62,1.6,1.1,3.24,1.66,4.86a5.73,5.73,0,0,0,.52.89c.53.9.22,1.52-.72,2-2.27,1.18-4.81,1.82-6.9,3.4-.94.71-2.24.1-2.71-1.15-.61-1.66-1-1.81-2.28-.63C124.81,86,123.36,85.83,123.53,87.41Z"/><path class="cls-1" d="M158.63,74.39c1.46.5,3.09,0,4.53,1,.82.56,2.09.42,3.07.81,2.22.89,4.44,1.8,6.55,2.9a64,64,0,0,1,7.15,4.23,37.22,37.22,0,0,1,4.21,3.94c.79.76,1.5,1.6,2.32,2.32,4,3.5,6.49,8,8.88,12.66.57,1.1-.28,1.76-1,2.11a7.7,7.7,0,0,0-4.2,3.91c-.45,1-1.49.83-2.21-.4-.59-1-1.08-2.08-1.63-3.12A43.62,43.62,0,0,0,176.12,92c-1.08-.93-2.07-2-3.17-2.88a11.39,11.39,0,0,0-2.15-1.41c-2.53-1.3-5-2.62-7.63-3.78a18.11,18.11,0,0,0-3.62-.91,51.67,51.67,0,0,0-6.45-1.34c-2.21-.21-4.47-.66-6.71.34-.79.35-1.88,0-2.83,0a2.28,2.28,0,0,1,.37-.39,69.76,69.76,0,0,1,11.23-5.55C156.35,75.6,157.47,75,158.63,74.39ZM188.93,108c.21-.1.51-.14.58-.29.91-1.88,2.56-2.92,4.25-3.95a1.64,1.64,0,0,0,.46-2.52c-.55-.89-1.17-1.74-1.67-2.66a31.06,31.06,0,0,0-8-9.93,4.68,4.68,0,0,0-2.09-1,22.44,22.44,0,0,0-7.67-.08c-1.29.29-1.5.55-.76,1.69a2.84,2.84,0,0,0,.56.72,37.77,37.77,0,0,1,3.84,3.14,63.92,63.92,0,0,1,5.6,6.72C185.85,102.46,187.28,105.24,188.93,108Z"/><path class="cls-2" d="M78.3,19l19,32.75L91,55.39c-.51-1-1-1.82-1.44-2.66-2.11-3.67-4.24-7.33-6.36-11C81,37.89,78.84,34,76.63,30.19c-1.37-2.4-2.78-4.78-4.13-7.19-.14-.24-.14-.84,0-.92C74.36,21,76.26,20,78.3,19Z"/><path class="cls-2" d="M217.61,130.3c0-1.76,0-3.52,0-5.28,0-1.13.58-1.74,1.65-1.45,4.55,1.25,9.19.41,13.78.68,2.57.16,4.9,2.77,5.13,5.33s-1.13,4.27-2.73,5.91a2.2,2.2,0,0,1-1.1.69c-2.23.38-4.47.8-6.73,1s-4.73.22-7.1.3c-2.16.08-3.07-.4-3-2.57.06-1.54,0-3.08,0-4.62Z"/><path class="cls-2" d="M74.59,137.5c-2.77-.36-5.55-.62-8.29-1.13a4.22,4.22,0,0,1-3.43-4.4v-3.43a4,4,0,0,1,4.21-4.2c2.86,0,5.72,0,8.57-.09a17.76,17.76,0,0,0,2.68-.49c.61-.12,1.21-.23,1.82-.29,1.13-.12,1.71.32,1.7,1.55,0,3.39,0,6.78,0,10.16,0,1.71-.43,2.06-2.17,2.09s-3.34,0-5,0Z"/><path class="cls-3" d="M132.81,136.61c.3,1.68,1.62,2.66,2.72,3.73a51,51,0,0,0,5.18,4.44,38.33,38.33,0,0,0,6.85,4.53A5.32,5.32,0,0,0,153,149c3.06-2.23,6.17-4.39,9.21-6.64a6.83,6.83,0,0,0,2.38-4.17l.38,0,0,0c.26-.07.62-.05.74-.21,1.62-2.29,4-1.19,6.08-1.36.83-.07.73.63.38,1.11s-.9.84-1.27,1.33c-.53.7-.94,1.49-1.45,2.21-.22.32-.49.71-.82.81-1.93.59-2.85,2.37-4.3,3.52-2,1.58-4.08,3.13-6.17,4.61a15.18,15.18,0,0,1-4.18,2.57c-1.73.5-3.54,1.68-5.38.95s-4-.93-5.51-2.58a16.39,16.39,0,0,0-2.53-1.74c-1-.7-2-1.4-2.9-2.18-2.37-2.05-4.71-4.14-7-6.24a15,15,0,0,1-2.18-2.26A3.16,3.16,0,0,1,128,137c0-.12.81-.32,1.25-.34C130.43,136.57,131.62,136.6,132.81,136.61Z"/><path class="cls-1" d="M204,129.43c0,1.86,0,3.27,0,4.68a49.37,49.37,0,0,1-2,12.37,9,9,0,0,0-.23,1,5.78,5.78,0,0,1-5.4,5.12c-1,.12-2.19.64-2.91-.52-1.59-2.58-3.34-5.1-3.6-8.29-.17-2.13-.46-4.25-.74-6.36s-.88-2.49-2.84-2.47c-2.82,0-5.63.07-8.45.1a6.27,6.27,0,0,1-1.44-.09c-.44-.12-1.12-.35-1.17-.63a2,2,0,0,1,.49-1.38c1.31-1.62,2.7-3.18,4-4.81a7.21,7.21,0,0,0,.58-1.32c.91-1.83,2.19-3.06,4.45-2.68a7,7,0,0,0,1.45,0c1.67-.06,2.09-.41,2.38-2,.6-3.48.92-7,2.19-10.36a8.37,8.37,0,0,1,5.07-5,1.83,1.83,0,0,1,1.39.15c2.15,1.29,3.92,2.83,4.5,5.52.54,2.51,1,5.07,1.63,7.53C204.26,123.31,203.62,126.6,204,129.43Zm-.45.75c.37-4.34-.46-8.55-1.28-12.76a21,21,0,0,1-.77-2.89,8.23,8.23,0,0,0-2.52-5.42c-1.12-1.2-2.93-1.87-3.85-1.28a8.12,8.12,0,0,0-3.83,4.66c-.81,3.33-1.14,6.77-1.77,10.14a3.52,3.52,0,0,1-1.1,1.72c-1.26,1.18-2.89.73-4.38.76a2.43,2.43,0,0,0-2.3,1.23A30.35,30.35,0,0,1,178,131.9c-1.46,1.55-1.35,1.66.53,2.36.08,0,.15.13.22.13,1.95,0,3.91,0,5.86,0a15.24,15.24,0,0,1,3.35-.15,2.57,2.57,0,0,1,1.57,1.66c.46,2.12.43,4.31.75,6.48a22.59,22.59,0,0,0,3.84,9.5,1,1,0,0,0,.59.41c1.74.3,5.22-1.49,5.88-3.22a41.33,41.33,0,0,0,.95-4.17c1.11-4.13,2.15-8.26,2-12.58C203.57,131.58,203.58,130.88,203.58,130.18Z"/><path class="cls-2" d="M236.32,27.41,225.64,42.35l-4.07-2.49c.9-1.47,1.86-2.82,2.58-4.29,1.83-3.74,4.52-6.92,6.52-10.54.41-.74.73-.85,1.39-.41C233.44,25.54,234.84,26.44,236.32,27.41Z"/><path class="cls-3" d="M128.7,183.68c2.76,0,3.07-.36,2.85-3.13,0-.08-.05-.17-.05-.25.05-.59-.06-1.58.18-1.67a4.69,4.69,0,0,1,2.3-.16c.23,0,.43.74.52,1.17.25,1.18.38,2.39.7,3.56.06.23.71.43,1.09.44,1.54.05,3.08,0,4.62.05a3.66,3.66,0,0,1,1.94.59,2.07,2.07,0,0,1,.59,1.57c0,.27-.71.64-1.15.73-.85.16-1.75.08-2.61.24a31,31,0,0,0-3.24.87c-.16.05-.29.4-.33.63a9.42,9.42,0,0,0,0,1.19c0,.91.23,1.89-1.3,1.83-1.78-.07-2.64-.59-2.62-2,0-2-.08-1.72-1.83-1.74a16,16,0,0,1-2.5,0,3.74,3.74,0,0,1-2-1,2.62,2.62,0,0,1-.35-2c.09-.39.88-.72,1.41-.86A7.52,7.52,0,0,1,128.7,183.68Z"/><path class="cls-3" d="M158.63,74.39c-1.16.57-2.28,1.21-3.47,1.7a69.76,69.76,0,0,0-11.23,5.55,2.28,2.28,0,0,0-.37.39,12.34,12.34,0,0,0-1.48.52c-1.2.61-1.37.48-1.51-.8-.18-1.79-.6-3.56-.74-5.36s.63-2.39,2.44-2.43c1.19,0,2.46.35,3.5-.66.19-.18.67-.11,1-.11,1.8,0,3.61-.07,5.41,0,.82,0,1.61.47,2.44.59s1.74.08,2.61.18A7.77,7.77,0,0,1,158.63,74.39Z"/><path class="cls-2" d="M141.83,64.71c-.83,0-1.67,0-2.5,0-1.66.05-1.81.3-1.89,2a3.37,3.37,0,0,1-.73,2.09,1.74,1.74,0,0,1-3-1.08,4.57,4.57,0,0,1-.05-.52c-.14-2.46-.14-2.46-2.7-2.45a13,13,0,0,1-2-.07,1.77,1.77,0,0,1-1.57-2A1.58,1.58,0,0,1,129,61c1.31-.12,2.63-.19,3.94-.23,1.66-.06,2-.35,2.39-2a2,2,0,0,1,2.26-1.51c1.1.25,1.65.81,1.4,2.07-.37,1.86,0,2.22,2,2.18,1.14,0,2.28,0,3.42.06s1.91.58,1.87,1.75-1.06,1.3-2,1.29c-.8,0-1.59,0-2.38,0Z"/><path class="cls-1" d="M112.17,85.08c-2.22-.5-3.18-2.15-4.42-3.52-2.6-2.86-5.35-5.59-7.89-8.51a3.34,3.34,0,0,1-.27-2.54,1.67,1.67,0,0,1,1.83-1.13A4.36,4.36,0,0,1,105,71.43a73.76,73.76,0,0,0,5.34,5.42c1.08,1.08,2.17,2.17,3.26,3.24,1.91,1.86,1.6,3.53-.82,4.58A3.14,3.14,0,0,0,112.17,85.08Z"/><path class="cls-3" d="M214.61,161a17,17,0,0,1-1.61,2.43c-1.6,1.73-3.35,3.34-5,5.05-1.37,1.45-2.62,3-4,4.47-.79.85-2.59,1.1-3.17.54-1.13-1.12-1-2.39-.09-3.72,2.66-3.83,6.25-6.76,9.33-10.18,1.21-1.34,3-1.48,3.84-.31A7.81,7.81,0,0,1,214.61,161Z"/><path class="cls-3" d="M93.39,138.4a5.65,5.65,0,0,1-.19-1c0-4.89-.29-9.79.08-14.65.25-3.25.51-6.61,1.92-9.69a17.27,17.27,0,0,0,.93-2.85c.44-1.78-.28-2.69-2.12-2.74-.83,0-1.68.08-2.5,0a3.1,3.1,0,0,0-3.19,1.65,9.79,9.79,0,0,0-1.83,5.24,29,29,0,0,1-.95,4.85A21.87,21.87,0,0,0,85,123c0,5.11-.08,10.22,0,15.32a23.79,23.79,0,0,0,.89,5.41c.55,2.14.89,4.34,2.09,6.3.84,1.37,1.7,2.43,3.47,2.3.79-.06,1.59,0,2.38,0,1.84-.05,2.62-1.12,2.07-2.87-.61-2-1.36-3.87-1.85-5.84a41.22,41.22,0,0,1-.65-4.59c.3.67.86,1.34.85,2,0,2.62,1.3,4.84,1.82,7.29a14.68,14.68,0,0,1,.54,2.39c0,1.41-.64,2.23-2.4,2.44-2.28.28-4.63.26-6.3-1.71a9.18,9.18,0,0,1-1.47-2.7,20.33,20.33,0,0,1-.95-3.52,45.1,45.1,0,0,1-.9-6c-.2-4-.24-8-.25-12a65.63,65.63,0,0,1,.31-7.81c.25-2.11,1.28-4.14,1.38-6.23.11-2.25,1.27-3.72,2.54-5.26.16-.2.37-.46.59-.5,2-.42,4-1,6.07-.34a1.71,1.71,0,0,1,1.4,2.05,31.52,31.52,0,0,1-1.15,4.67,43.36,43.36,0,0,0-1.27,5.41c-1.27,6.23-.36,12.5-.68,18.74A1.5,1.5,0,0,1,93.39,138.4Z"/><path class="cls-1" d="M38.5,233.51c2.12-.4,2.16-.39,2.87,1.4,1.36,3.42,2.69,6.85,4.27,10.26V233.43h1.53v14.85c-2.21.31-2.2.31-2.93-1.61q-1.76-4.62-3.53-9.23a1.91,1.91,0,0,0-.71-.95v11.84H38.5Z"/><path class="cls-2" d="M99.05,177.57c-2.12,0-3.35-1.9-2.26-3.39a65.86,65.86,0,0,1,4.81-5.51,20.42,20.42,0,0,1,2.23-2,2.07,2.07,0,0,1,2.86.13c.79.81,1.34,1.54.5,2.83-2,3-4.64,5.21-7.19,7.59A2.45,2.45,0,0,1,99.05,177.57Z"/><path class="cls-1" d="M141.1,248v4h-1.79v-1.54c0-4,0-8.08,0-12.12,0-.41.36-.82.55-1.24l1.37.83a6,6,0,0,1,.61-.48,3.14,3.14,0,0,1,4.94,1.5,10.16,10.16,0,0,1-.11,7.34C145.85,248.47,143.87,249.06,141.1,248Zm0-5c0,.84,0,1.67,0,2.51-.07,1.28.73,1.7,1.77,1.83a2.25,2.25,0,0,0,2.47-2.22,22.85,22.85,0,0,0,.08-5,1.83,1.83,0,0,0-2.19-1.9,2.33,2.33,0,0,0-2.12,2.37C141.06,241.39,141.07,242.18,141.07,243Z"/><path class="cls-1" d="M195.27,248.33c-.85.07-1.67.41-1.6-.58a17.84,17.84,0,0,1-3.21.83,3.05,3.05,0,0,1-3.16-2.29,3.2,3.2,0,0,1,1.32-3.7,19.05,19.05,0,0,1,3.4-1.11c.55-.18,1.47.26,1.49-.82s-.08-2.08-1.32-2.44a2.2,2.2,0,0,0-2.61.75c-.6.89-1.15.92-1.89.26.58-2,3-2.64,4.6-2.35a3.19,3.19,0,0,1,3,3.55C195.29,243,195.27,245.61,195.27,248.33Zm-1.77-5.81a27,27,0,0,0-3.55,1,1.72,1.72,0,0,0-.85,2.46,2.92,2.92,0,0,0,2.05,1.24,2,2,0,0,0,2.32-1.51A19.44,19.44,0,0,0,193.5,242.52Z"/><path class="cls-1" d="M212,243.1c.08,1.63.2,3.08,1.67,3.82s2.79.06,3.85-1.21l1.21.77a4.93,4.93,0,0,1-.65.86c-2.05,1.8-6.11,2.31-7.39-1.7a8.38,8.38,0,0,1,.57-7,3.87,3.87,0,0,1,3.82-1.81,3.56,3.56,0,0,1,3.48,2.53,18.17,18.17,0,0,1,.4,3.74h-7Zm5.11-1.43c0-2.38-.72-3.51-2.27-3.56s-2.66,1.23-2.68,3.56Z"/><path class="cls-2" d="M105.33,91a4.47,4.47,0,0,1-4.45,4.2c-2.34-.14-3.69-1.53-3.5-3.72s1.35-4.12,4.46-3.8C104.21,87.93,105.46,89,105.33,91Z"/><path class="cls-1" d="M121,243.09h-6.9a3.44,3.44,0,0,0,1.28,3.76c1.26.73,2.42.43,4-1.12l1.18.68a4.4,4.4,0,0,1-4,2.17,3.82,3.82,0,0,1-3.74-2.24,8.32,8.32,0,0,1,.08-7.38,3.84,3.84,0,0,1,3.91-2.17,3.34,3.34,0,0,1,3.43,2.55C120.59,240.49,120.74,241.68,121,243.09Zm-2.06-1.45c.1-1.39,0-2.66-1.21-3.23a3,3,0,0,0-2.45.11,3.16,3.16,0,0,0-1.29,3.12Z"/><path class="cls-1" d="M57.39,243.1c.18,1.61.24,3.1,1.73,3.88s2.77,0,3.84-1.26l1.19.74a4,4,0,0,1-3.3,2.12A4.18,4.18,0,0,1,56.77,247c-1.49-2.08-1.44-6.47.08-8.52a4.11,4.11,0,0,1,4.08-1.57,3.37,3.37,0,0,1,3,2.86,30.87,30.87,0,0,1,.43,3.37Zm5.17-1.41c-.07-2.53-.77-3.57-2.33-3.58s-2.61,1.27-2.6,3.58Z"/><path class="cls-1" d="M244.16,243.1c.14,1.66.26,3.09,1.71,3.84s2.45.27,3.9-1.23l1.1.76c-1.84,2.91-6.27,2.87-7.66-.09a8.41,8.41,0,0,1,.15-7.51,3.84,3.84,0,0,1,4-2.05,3.4,3.4,0,0,1,3.39,2.79,34.87,34.87,0,0,1,.53,3.49Zm5.17-1.42c-.14-2.63-.79-3.57-2.36-3.57s-2.56,1.23-2.66,3.57Z"/><path class="cls-1" d="M151.29,239.78l-1.21-.5a3.78,3.78,0,0,1,4.33-2.45c2,.25,3.11,1.35,3.15,3.24.05,2.72,0,5.44,0,8.55L156,247.9a18.75,18.75,0,0,1-3.74.54,2.78,2.78,0,0,1-2.67-2.33,3.3,3.3,0,0,1,1.65-3.71,16,16,0,0,1,3-.91,11.29,11.29,0,0,1,1.56-.16c.21-1.31.16-2.44-1.09-3.05S152.56,238.2,151.29,239.78Zm4.65,2.79a25.29,25.29,0,0,0-3.39.76,2,2,0,0,0-1.14,2.62,2,2,0,0,0,2.31,1.32,2.33,2.33,0,0,0,2.22-2C156,244.51,155.94,243.72,155.94,242.57Z"/><path class="cls-1" d="M100.28,243.09h-7c.18,1.59.2,3.11,1.76,3.85s2.79,0,3.82-1.25l1.2.83a4.48,4.48,0,0,1-3.94,2.09,3.94,3.94,0,0,1-3.84-2.32,8.55,8.55,0,0,1-.06-6.92,3.91,3.91,0,0,1,4.32-2.54c2,.27,3,1.19,3.44,3.41A28.37,28.37,0,0,1,100.28,243.09Zm-1.83-1.43c0-2.53-.76-3.57-2.4-3.55s-2.6,1.36-2.52,3.55Z"/><path class="cls-2" d="M201.14,96.75c-2.23,0-3.59-1.14-3.53-3.31.07-2.41.83-4.39,3.92-4.25a3.79,3.79,0,0,1-.39,7.56Z"/><path class="cls-1" d="M75.28,248.33h-1.6c0-2,0-4,0-6,0-.7,0-1.41-.09-2.11-.17-1.54-.75-2.13-2-2.11a2.86,2.86,0,0,0-2.67,2.44c0,2.29,0,4.57,0,6.86,0,.26,0,.52-.05.86H67.21c0-3.52,0-7,0-10.45,0-.26.54-.76.62-.72a8,8,0,0,1,1.23.93,4,4,0,0,1,3.58-1.18,2.67,2.67,0,0,1,2.57,2.84C75.38,242.57,75.28,245.42,75.28,248.33Z"/><path class="cls-3" d="M208.31,67.73c-1,2.35-1.93,3.06-5.51,2.62a4.22,4.22,0,0,0,.13.85,3.74,3.74,0,0,1-1,4.1c-1.46,1.67-3.12,3.16-4.67,4.76-1.33,1.38-2.59,2.82-3.94,4.18-.94,1-2.12.71-3.2.32s-1-1.4-1.2-2.31a3.28,3.28,0,0,1,1.26-3.63c2.39-2.09,4.55-4.44,6.79-6.7.49-.49.89-1.08,1.4-1.56.79-.75,1.58-1.62,2.83-.7.2.14.56,0,.94.07a7.11,7.11,0,0,0-.16-.86,3.18,3.18,0,0,1,.91-3.91c.7-.69,1.28-1.51,1.93-2.24a1.65,1.65,0,0,1,.54-.29c0,.27,0,.53.05.8l-.15.47-1.08,1.12L204,65a6.26,6.26,0,0,0-.95.63,2.71,2.71,0,0,0-.45,3.36,2.33,2.33,0,0,0,3.09.88,10.51,10.51,0,0,0,2.11-2.15h0l.48,0ZM189.15,81.12l.34.22a2.39,2.39,0,0,0,1.43,2.79c1.17.49,2-.21,2.69-.88s1.48-1.8,2.29-2.64c1.78-1.87,3.69-3.63,5.38-5.57a4.27,4.27,0,0,0,1-2.68A3.57,3.57,0,0,0,201,70.29a1.61,1.61,0,0,0-1.51.19c-1.36,1.16-2.62,2.44-3.9,3.7-1.71,1.69-3.43,3.37-5.09,5.09A14.33,14.33,0,0,0,189.15,81.12Z"/><path class="cls-1" d="M228.28,238.88c-.64.44-1.17.77-1.84-.12a2,2,0,0,0-2.63-.44,1.8,1.8,0,0,0-.89,1.31,2.17,2.17,0,0,0,.82,1.49,6,6,0,0,0,1.82.72c2.39.79,3.41,2.25,2.88,4.14a3.92,3.92,0,0,1-5,2.47,17.36,17.36,0,0,1-3-1.69l1.55-1,0,.33a14.25,14.25,0,0,0,2.93,1,1.67,1.67,0,0,0,1.92-1.43,1.77,1.77,0,0,0-1.19-2.1c-.84-.38-1.74-.62-2.59-1a2.7,2.7,0,0,1-1.81-2.79,2.87,2.87,0,0,1,2.08-2.75A3.88,3.88,0,0,1,228.28,238.88Z"/><path class="cls-1" d="M167.56,238.9c-.75.57-1.28.69-1.92-.15a1.89,1.89,0,0,0-2.63-.36,2.19,2.19,0,0,0-.76,1.72c0,.45.67,1,1.15,1.24.85.46,1.82.67,2.67,1.13a3.07,3.07,0,0,1,.41,5.32c-1.79,1.39-5.56,1.09-6.33-1.39l1-.59a13.93,13.93,0,0,0,2.18,1.32,2.14,2.14,0,0,0,2.63-1.17,1.91,1.91,0,0,0-1.45-2.53c-.58-.2-1.18-.36-1.75-.59-1.81-.74-2.51-1.78-2.3-3.38.18-1.4,1.31-2.36,3.07-2.61A3.6,3.6,0,0,1,167.56,238.9Z"/><path class="cls-1" d="M130.64,237.1a15.17,15.17,0,0,1-1.07,2.69c-1.51,2.3-3.14,4.53-4.85,7H130v1.55H122.6a11.57,11.57,0,0,1,.93-2.67c1.54-2.33,3.22-4.58,5-7.1-1.56,0-2.85,0-4.14,0s-1.28,0-1-1.44Z"/><path class="cls-1" d="M101.6,237.24c1.26-.39,1.8-.12,2.1,1,.71,2.75,1.57,5.47,2.49,8.6.5-1.6.89-2.82,1.25-4.05.46-1.52,1-3,1.3-4.56.26-1.16.84-1.43,2-1l-.84,2.71c-.79,2.56-1.55,5.12-2.4,7.66a1.3,1.3,0,0,1-1,.74c-.56,0-1.52-.17-1.63-.5C103.75,244.36,102.71,240.83,101.6,237.24Z"/><path class="cls-1" d="M180.1,237.16l1.64-.15c0-1.54-.09-3.22,1.75-3.88a3.85,3.85,0,0,1,3.71.6c-.63.34-1.06.78-1.43.73-2.1-.25-2.49.15-2.18,2.57l2.37.12.1,1.31-2.6.15v9.72l-1.68.09V243.5c0-1.32,0-2.64,0-4,0-.71-.09-1.22-1-1.13S179.88,237.91,180.1,237.16Z"/><path class="cls-1" d="M208.49,248.14c-2.63,1.06-4.43-.09-4.46-2.84,0-2.23,0-4.47,0-6.77l-1.48-.19c-.08-1.12-.08-1.12,1.43-1.39.08-.8.16-1.62.24-2.51h1.52c.05.88.09,1.7.13,2.52l2.54.34c-.26,1.75-1.65.8-2.56,1.33,0,2.42-.06,5,.07,7.48,0,.34.93.9,1.44.92C208.23,247.05,208.57,247.3,208.49,248.14Z"/><path class="cls-3" d="M79.8,145.61c2.09,0,3.49,1.2,3.47,3a3.23,3.23,0,0,1-2.92,3.07c-2.16,0-3.69-1.25-3.7-3A3.06,3.06,0,0,1,79.8,145.61Z"/><path class="cls-3" d="M77.72,99.88c1.67,0,3.42,1.41,3.41,2.75,0,1.07-2,2.53-3.38,2.54-2.1,0-2.69-.49-2.7-2.27C75.05,100.38,75.49,99.88,77.72,99.88Z"/><path class="cls-1" d="M237.83,234.49l-1.47-.18c.13-1.47.45-1.58,3.09-1.12v3.09c0,3.69,0,7.38,0,11.06,0,1.17-.47,1.49-1.64,1.17Z"/><path class="cls-3" d="M191.84,165c0-1.78,1.1-3.21,2.48-3.23,1.22,0,3.34,1.84,3.33,2.92a3.23,3.23,0,0,1-3,2.91C192.77,167.53,191.83,166.66,191.84,165Z"/><path class="cls-1" d="M86.67,248.34H85.12v-11c.92-.32,1.51-.22,1.37,1.16,1-1.15,2-1.88,3.48-1.41l-.27,1.36c-2,.07-3,1.06-3,3.05C86.66,243.71,86.67,245.94,86.67,248.34Z"/><path class="cls-1" d="M200.21,248.34h-1.55V237.17l1.55-.08Z"/><path class="cls-1" d="M222.85,107.42H220a11,11,0,0,1-.78-1.48c-.2-.61-.59-1.56-.33-1.85.61-.68,1.06-1.66,2.3-1.72,1.41-.07,2.08.84,2.78,1.68s.06,1.45-.46,2.1A6.81,6.81,0,0,0,222.85,107.42Z"/><path class="cls-1" d="M262.18,243.21c-1.11.33-1.58.13-1.57-.88,0-2.94,0-5.87,0-8.91h1.56Z"/><path class="cls-3" d="M228.78,144.61c1.68,0,2.66.75,2.66,2a1.93,1.93,0,0,1-2.08,2.11,2.31,2.31,0,0,1-2.3-2.5C227.08,144.79,227.29,144.59,228.78,144.61Z"/><path class="cls-1" d="M213.65,93.76a1.77,1.77,0,0,1,1.67,1.79c0,.94-1.62,3-2.26,2.65a5.67,5.67,0,0,1-2.3-2.2C210.38,95.27,212.43,93.76,213.65,93.76Z"/><path class="cls-1" d="M115.77,169.87a2.7,2.7,0,0,1,2.89,2.68,3.1,3.1,0,0,1-3.26,2.89c-2,0-2.53-.74-2.54-3.38C112.84,170.3,113.37,169.91,115.77,169.87Zm-.41,4.65c1.59,0,2.35-.58,2.36-1.82,0-1.44-.62-2.33-1.64-2.35-1.29,0-2.43.77-2.45,1.71C113.58,173.83,114.06,174.52,115.36,174.52Z"/><path class="cls-3" d="M108.9,179.93c-1.86,0-1.86,0-1.86-1.65,0-1.36.71-2.24,1.8-2.27s1.93.86,1.92,2.28C110.76,179.92,110.75,179.93,108.9,179.93Z"/><path class="cls-3" d="M181,178.82a1.9,1.9,0,0,1-2.06,1.89c-.61,0-1.83-1.46-1.51-2s.17-2.07,1.68-1.91A1.9,1.9,0,0,1,181,178.82Z"/><path class="cls-3" d="M160.06,56.29c.72.24,1.93-.5,1.93,1.06a2.19,2.19,0,0,1-1.91,2.1,2,2,0,0,1-2-2.05C158.05,55.75,159.32,56.54,160.06,56.29Z"/><path class="cls-3" d="M186.36,170.72a2,2,0,0,1,2.08,2.07,1.73,1.73,0,1,1-3.45-.28C185.1,171.55,185.49,170.73,186.36,170.72Z"/><path class="cls-3" d="M84.06,168.59c.22,1.15-.48,1.38-1.53,1.32s-2.39-.95-2.06-1.48a4.07,4.07,0,0,1,2-1.83C83.36,166.33,84.07,167.35,84.06,168.59Z"/><path class="cls-1" d="M98.65,235.85a3.69,3.69,0,0,1-.71-.4c-1.19-1.11-2.37-1.29-3.65-.09-.2.19-.72.06-1.1.08.12-.39.12-.88.37-1.14a7.09,7.09,0,0,1,1.74-1.4c.85-.46,3.64,1,3.8,1.95C99.15,235.14,98.82,235.49,98.65,235.85Z"/><path class="cls-1" d="M170.1,246.39h1.83c.47,2.38-.74,5.14-2.28,5.07C169.79,249.82,169.94,248.18,170.1,246.39Z"/><path class="cls-1" d="M50.57,233.12h2.34c-.19,1.63-.35,3.16-.57,4.69,0,.2-.45.53-.58.49s-.61-.37-.65-.61C50.89,236.23,50.75,234.76,50.57,233.12Z"/><path class="cls-3" d="M222.85,107.42a6.81,6.81,0,0,1,.65-1.26c.52-.65,1.07-1.35.46-2.1s-1.37-1.75-2.78-1.68c-1.24.06-1.69,1-2.3,1.72-.26.29.13,1.24.33,1.85a11,11,0,0,0,.78,1.48c-.58.09-1,.09-1-.74,0-.44-.53-.85-.66-1.31-.27-.95.72-2.75,1.71-3.26.78-.41,2.62.08,3.37.65,2,1.52,1.18,2.9.24,4.43C223.54,107.37,223.12,107.35,222.85,107.42Z"/><path class="cls-3" d="M170.4,185.11c0-1.66.25-1.94,1.53-2,1-.07,1.28.34,1.24,1.3-.07,1.5-.59,2.18-1.77,2.25S170.48,185.78,170.4,185.11Z"/><path class="cls-3" d="M146.67,193.58c.08.85.15,1.56-1.13,1.49-1.06-.06-1.67-.46-1.76-1.48-.07-.83.89-1.45,1.93-1.51C147,192,146.63,192.92,146.67,193.58Z"/><path class="cls-1" d="M211.47,80.54c-.68-.93-1.44-1.51-1.44-2.08s.91-1.42,1.35-1.38a2,2,0,0,1,1.49,1.36C212.91,79,212.13,79.61,211.47,80.54Z"/><path class="cls-3" d="M118.55,75c1-.18,1.26.27,1.23,1.17s-.46,1.94-1.32,1.94c-1.09,0-1.33-1.22-1.29-2.11,0-.44.72-.85,1.11-1.27Z"/><path class="cls-3" d="M205.56,62.29a2.9,2.9,0,0,1,3.52-.63,2.56,2.56,0,0,1,1.44,2.89,4,4,0,0,1-2.21,3.18l-.06-.07,0-.48.11-.3a5.77,5.77,0,0,0,1.1-.83,2.36,2.36,0,0,0-1.27-4A9.68,9.68,0,0,0,205.56,62.29Z"/><path class="cls-1" d="M175.22,69.68a1.56,1.56,0,0,1,1.16,2.12,1,1,0,0,1-.84.51c-.45,0-1.19-.2-1.28-.48A1.53,1.53,0,0,1,175.22,69.68Z"/><path class="cls-1" d="M262.52,246.19c-.4,1,.64,2.31-1.11,2.45-1,.08-1.37-.27-1.32-1.27C260.16,245.61,261.44,246.54,262.52,246.19Z"/><path class="cls-1" d="M205.56,62.29a9.68,9.68,0,0,1,2.65-.23,2.36,2.36,0,0,1,1.27,4,5.77,5.77,0,0,1-1.1.83,13.84,13.84,0,0,1,.75-1.43c.6-.88.56-2.65-.14-2.68-1.18-.05-2.52-.73-3.56.46,0-.27,0-.53-.05-.8A1.24,1.24,0,0,0,205.56,62.29Z"/><path class="cls-1" d="M200.25,233.13c.5,1.88.33,2.07-1.66,1.89v-1.89Z"/><path class="cls-3" d="M151.27,137.29l.09-1.32Z"/><path class="cls-3" d="M148.14,130.94l.12,1.45Z"/><path class="cls-3" d="M168.93,119.15l.64-1.23Z"/><path class="cls-3" d="M137.36,129.44c.07-.48.14-1,.22-1.45C137.5,128.48,137.43,129,137.36,129.44Z"/><path class="cls-3" d="M153.66,128.34c.21-.31.42-.61.62-.92C154.07,127.73,153.87,128,153.66,128.34Z"/><path class="cls-3" d="M158.11,128.56l.45.9C158.4,129.16,158.26,128.86,158.11,128.56Z"/><path class="cls-3" d="M152.2,133.4l.5-.64Z"/><path class="cls-3" d="M136.51,131l.27-.88Z"/><path class="cls-3" d="M153.15,131c0-.09-.12-.26-.1-.27a2.71,2.71,0,0,1,.39-.17C153.35,130.66,153.25,130.8,153.15,131Z"/><path class="cls-3" d="M142.8,115.88l.37-.25.15.26Z"/><path class="cls-3" d="M148.92,133.51c0,.21,0,.42,0,.63C148.93,133.93,148.93,133.72,148.92,133.51Z"/><path class="cls-3" d="M138.21,127c0-.2.07-.4.11-.6C138.28,126.62,138.25,126.82,138.21,127Z"/><path class="cls-3" d="M167.72,127.07l.3-.67Z"/><path class="cls-3" d="M148,129.78l.27.05c0,.11-.1.22-.16.33C148.1,130,148.06,129.91,148,129.78Z"/><path class="cls-3" d="M165,133.35l.65-.28Z"/><path class="cls-3" d="M139.46,123.4c.11-.13.21-.27.32-.41C139.67,123.13,139.57,123.27,139.46,123.4Z"/><path class="cls-3" d="M149.71,137.26l.15.41Z"/><path class="cls-3" d="M167.37,127.55l-.15-.26.34,0Z"/><path class="cls-3" d="M168.53,123.35l-.06-.2.18,0A.27.27,0,0,1,168.53,123.35Z"/><path class="cls-3" d="M146.22,123.85h0Z"/><path class="cls-3" d="M154.86,125.49h0Z"/><path class="cls-3" d="M135.83,133.16h0Z"/><polygon class="cls-3" points="156.75 132.35 156.73 132.33 156.79 132.31 156.75 132.35"/><polygon class="cls-3" points="137.93 22.27 137.98 22.34 137.93 22.41 137.85 22.34 137.93 22.27"/><path class="cls-4" d="M164.92,138.19l-.38,0Z"/><path class="cls-2" d="M188.93,108c-1.65-2.79-3.08-5.57-4.86-8.11a63.92,63.92,0,0,0-5.6-6.72,37.77,37.77,0,0,0-3.84-3.14,2.84,2.84,0,0,1-.56-.72c-.74-1.14-.53-1.4.76-1.69a22.44,22.44,0,0,1,7.67.08,4.68,4.68,0,0,1,2.09,1,31.06,31.06,0,0,1,8,9.93c.5.92,1.12,1.77,1.67,2.66a1.64,1.64,0,0,1-.46,2.52c-1.69,1-3.34,2.07-4.25,3.95C189.44,107.89,189.14,107.93,188.93,108Z"/><path class="cls-2" d="M203.58,130.18c0,.7,0,1.4,0,2.11.12,4.32-.92,8.45-2,12.58a41.33,41.33,0,0,1-.95,4.17c-.66,1.73-4.14,3.52-5.88,3.22a1,1,0,0,1-.59-.41,22.59,22.59,0,0,1-3.84-9.5c-.32-2.17-.29-4.36-.75-6.48a2.57,2.57,0,0,0-1.57-1.66,15.24,15.24,0,0,0-3.35.15c-1.95,0-3.91,0-5.86,0-.07,0-.14-.1-.22-.13-1.88-.7-2-.81-.53-2.36a30.35,30.35,0,0,0,3.76-5.56,2.43,2.43,0,0,1,2.3-1.23c1.49,0,3.12.42,4.38-.76a3.52,3.52,0,0,0,1.1-1.72c.63-3.37,1-6.81,1.77-10.14a8.12,8.12,0,0,1,3.83-4.66c.92-.59,2.73.08,3.85,1.28a8.23,8.23,0,0,1,2.52,5.42,21,21,0,0,0,.77,2.89C203.12,121.63,204,125.84,203.58,130.18Z"/><path class="cls-2" d="M189.15,81.12a14.33,14.33,0,0,1,1.31-1.85c1.66-1.72,3.38-3.4,5.09-5.09,1.28-1.26,2.54-2.54,3.9-3.7a1.61,1.61,0,0,1,1.51-.19,3.57,3.57,0,0,1,1.35,2.07,4.27,4.27,0,0,1-1,2.68c-1.69,1.94-3.6,3.7-5.38,5.57-.81.84-1.44,1.85-2.29,2.64s-1.52,1.37-2.69.88a2.39,2.39,0,0,1-1.43-2.79Z"/><path class="cls-2" d="M205.43,63.23c1-1.19,2.38-.51,3.56-.46.7,0,.74,1.8.14,2.68a13.84,13.84,0,0,0-.75,1.43l-.11.3-.5.52h0c-.44.33-.9.63-1.31,1a2.67,2.67,0,0,1-3.23.25c-.85-.75-.82-1.7.07-2.9.25-.34.45-.7.67-1.06l.25-.17,1.08-1.12Z"/><path class="cls-1" d="M204,65c-.22.36-.42.72-.67,1.06-.89,1.2-.92,2.15-.07,2.9a2.67,2.67,0,0,0,3.23-.25c.41-.36.87-.66,1.31-1a10.51,10.51,0,0,1-2.11,2.15,2.33,2.33,0,0,1-3.09-.88,2.71,2.71,0,0,1,.45-3.36A6.26,6.26,0,0,1,204,65Z"/><path class="cls-1" d="M205.28,63.7l-1.08,1.12Z"/><path class="cls-1" d="M207.77,67.7l.5-.52,0,.48Z"/><path class="cls-2" d="M115.36,174.52c-1.3,0-1.78-.69-1.73-2.46,0-.94,1.16-1.73,2.45-1.71,1,0,1.65.91,1.64,2.35C117.71,173.94,117,174.53,115.36,174.52Z"/></svg>